<svg width="35" height="21" viewBox="0 0 35 21" fill="none" xmlns="http://www.w3.org/2000/svg">
<path d="M35 0H0V21H35V0Z" fill="#3C9242"/>
<path d="M5.39807 10.499L17.501 18.4502L29.6099 10.499L17.501 2.5498L5.39807 10.499Z" fill="#EDC226"/>
<path d="M22.6035 10.499C22.6035 13.3976 20.321 15.7475 17.501 15.7475C14.6849 15.7475 12.4004 13.3976 12.4004 10.499C12.4004 7.60249 14.683 5.24854 17.501 5.24854C20.319 5.24854 22.6035 7.60249 22.6035 10.499Z" fill="#2D146E"/>
<path d="M14.5858 8.24927C13.9869 8.24927 13.4019 8.29618 12.8308 8.37778C12.7217 8.63479 12.6305 8.90405 12.5591 9.17943C13.2175 9.06316 13.8937 8.99992 14.5858 8.99992C17.5764 8.99992 20.3091 10.1606 22.3735 12.0678C22.4568 11.7986 22.5183 11.5191 22.554 11.2376C20.3983 9.37321 17.62 8.24927 14.5858 8.24927Z" fill="white"/>
</svg>
