<svg width="100" height="46" viewBox="0 0 100 46" fill="none" xmlns="http://www.w3.org/2000/svg">
<path d="M20.673 0V24.1511H13.8597V6.03829H13.7121L8.22302 9.19846V3.63162L14.3988 0H20.673Z" fill="#9B9FA2"/>
<path d="M26.9472 24.1511L36.7981 5.37744V5.23538H25.2316V0H43.8574V5.23538L33.9573 24.1511H26.9472Z" fill="#9B9FA2"/>
<path d="M85.1499 30.5787C84.3734 30.5787 83.6354 30.5211 82.9316 30.4079C82.2299 30.2946 81.6117 30.1382 81.0812 29.9426L82.5508 25.3207C83.3829 25.6028 84.0953 25.7283 84.6836 25.6913C85.2718 25.6563 85.704 25.4072 85.982 24.9419L86.1297 24.6125L79.5132 5.69678H86.5703L89.6101 18.2448H89.8069L92.8937 5.69678H100L93.1376 25.3207C92.7953 26.311 92.299 27.2024 91.6487 27.9971C90.9984 28.7918 90.147 29.4197 89.0945 29.8849C88.0421 30.3502 86.7265 30.5787 85.1499 30.5787Z" fill="#F3F3F3"/>
<path d="M77.0445 19.0457C76.7707 19.093 76.5311 19.1156 76.3279 19.1156C76.0349 19.1156 75.7931 19.0745 75.6049 18.9921C75.4166 18.9098 75.2776 18.7842 75.1877 18.6154C75.0979 18.4466 75.053 18.2366 75.053 17.9854V10.4133H78.2874V5.69676H75.053V1.35693L68.2889 3.72655V5.69676H65.8866V10.4133H68.2889V18.5968C68.2718 19.863 68.5306 20.917 69.0611 21.757C69.5917 22.599 70.3853 23.2125 71.4378 23.6016C72.4924 23.9908 73.7951 24.1452 75.346 24.0669C76.114 24.0278 76.7771 23.9455 77.3376 23.8199C77.8959 23.6943 78.3281 23.5872 78.6297 23.5008L77.6499 18.9262C77.5194 18.9592 77.3184 18.9983 77.0445 19.0457Z" fill="#F3F3F3"/>
<path d="M64.0747 35.6615C64.0747 37.5947 63.6897 39.2602 62.9174 40.656C62.1452 42.0519 61.035 43.1245 59.5846 43.8759C58.1343 44.6274 56.3972 45.002 54.3714 45.002C52.4269 45.002 50.7284 44.6253 49.2738 43.8697C47.8192 43.1142 46.6875 42.0498 45.8789 40.6746C45.0703 39.2993 44.666 37.675 44.666 35.8036C44.666 34.4345 44.8863 33.1972 45.327 32.0896C45.7677 30.98 46.4073 30.0329 47.2437 29.2465C48.0823 28.4601 49.0962 27.8548 50.2878 27.4307C51.4814 27.0066 52.8248 26.7945 54.3201 26.7945H55.8881V42.9742H52.1638V32.7855C51.6248 32.7937 51.1499 32.9255 50.737 33.1808C50.3241 33.436 50.0011 33.7778 49.7701 34.206C49.5369 34.6342 49.4214 35.1201 49.4214 35.6615C49.4214 36.1886 49.5369 36.6724 49.7701 37.113C50.0033 37.5535 50.3241 37.9056 50.7327 38.1691C51.1413 38.4326 51.6183 38.5726 52.166 38.587H56.1855C56.7909 38.587 57.3299 38.4655 57.8027 38.2206C58.2776 37.9776 58.6477 37.6276 58.9172 37.1706C59.1867 36.7156 59.3215 36.1639 59.3215 35.5195C59.3215 35.0707 59.2552 34.661 59.1247 34.2863C58.9942 33.9137 58.8038 33.5925 58.5557 33.3249C58.3075 33.0572 58.0059 32.8616 57.6551 32.7361V26.7925C58.9621 26.9963 60.0959 27.4801 61.0564 28.2439C62.0169 29.0056 62.7592 30.0144 63.2875 31.2682C63.8116 32.522 64.0747 33.9857 64.0747 35.6615Z" fill="#F3F3F3"/>
<path d="M45.5772 8.87519C44.9676 9.82221 44.6638 10.938 44.6638 12.2186C44.6638 13.5465 45.0018 14.7097 45.6799 15.704C46.358 16.6984 47.2929 17.3922 48.4865 17.7854V17.9748H44.9077L47.2437 24.1531H63.7281V17.6413H53.1414C52.521 17.6331 51.9884 17.524 51.5413 17.3119C51.0963 17.0999 50.7519 16.7952 50.5123 16.3978C50.2727 16.0005 50.1508 15.5352 50.1508 14.9999C50.1508 14.1826 50.4161 13.5444 50.9466 13.0833C51.4771 12.6242 52.2087 12.3977 53.1392 12.4059H63.726V5.89619H51.7167C50.3519 5.88795 49.139 6.1453 48.0779 6.66822C47.0212 7.19114 46.1869 7.92611 45.5772 8.87519Z" fill="#F3F3F3"/>
<path d="M18.4782 44.6481L13.772 26.5353H20.536L22.6923 37.5722H22.8399L25.2422 26.5332H31.8095L34.3102 37.4775H34.4578L36.5157 26.5332H43.2798L38.5736 44.646H31.2704L28.6243 34.9288H28.4275L25.7813 44.646H18.4782V44.6481Z" fill="#F3F3F3"/>
<path d="M11.1558 39.8821C10.882 39.9294 10.6424 39.9521 10.4392 39.9521C10.1461 39.9521 9.90438 39.9109 9.71613 39.8286C9.52788 39.7462 9.38884 39.6206 9.29899 39.4518C9.20915 39.283 9.16422 39.073 9.16422 38.8218V31.2518H12.3987V26.5352H9.16636V22.1934L2.40229 24.563V26.5332H0V31.2498H2.40229V39.4333C2.38518 40.6994 2.64402 41.7535 3.17454 42.5934C3.70505 43.4355 4.49868 44.049 5.55116 44.4381C6.60577 44.8272 7.90853 44.9816 9.45943 44.9034C10.2274 44.8642 10.8905 44.7819 11.451 44.6563C12.0093 44.5307 12.4414 44.4237 12.7431 44.3372L11.7633 39.7627C11.6328 39.7956 11.4296 39.8347 11.1558 39.8821Z" fill="#F3F3F3"/>
</svg>
