<svg width="35" height="21" viewBox="0 0 35 21" fill="none" xmlns="http://www.w3.org/2000/svg">
<path d="M35 19.3833H0V20.9981H35V19.3833Z" fill="#CB001C"/>
<path d="M35 17.7686H0V19.3833H35V17.7686Z" fill="white"/>
<path d="M35 16.1555H0V17.7682H35V16.1555Z" fill="#CB001C"/>
<path d="M35 14.5388H0V16.1556H35V14.5388Z" fill="white"/>
<path d="M35 12.9224H0V14.5371H35V12.9224Z" fill="#CB001C"/>
<path d="M35 11.3074H0V12.9221H35V11.3074Z" fill="white"/>
<path d="M35 9.69067H0V11.3075H35V9.69067Z" fill="#CB001C"/>
<path d="M35 8.07764H0V9.69036H35V8.07764Z" fill="white"/>
<path d="M35 6.46289H0V8.07765H35V6.46289Z" fill="#CB001C"/>
<path d="M35 4.84863H0V6.46339H35V4.84863Z" fill="white"/>
<path d="M35 3.22949H0V4.84629H35V3.22949Z" fill="#CB001C"/>
<path d="M35 1.6167H0V3.22942H35V1.6167Z" fill="white"/>
<path d="M35 0H0V1.6168H35V0Z" fill="#CB001C"/>
<path d="M15.9837 0H0V11.3074H15.9837V0Z" fill="#2A3560"/>
<path d="M1.44487 1.24585L1.57965 1.67604H2.0177L1.6629 1.93905L1.79768 2.36721L1.44487 2.1042L1.09007 2.36721L1.22882 1.93905L0.874023 1.67604H1.3081L1.44487 1.24585Z" fill="white"/>
<path d="M1.44487 3.13379L1.57965 3.56194H2.0177L1.6629 3.82495L1.79768 4.25311L1.44487 3.98806L1.09007 4.25311L1.22882 3.82495L0.874023 3.56194H1.3081L1.44487 3.13379Z" fill="white"/>
<path d="M1.44487 5.02368L1.57965 5.44776H2.0177L1.6629 5.71281L1.79768 6.143L1.44487 5.87591L1.09007 6.143L1.22882 5.71281L0.874023 5.44776H1.3081L1.44487 5.02368Z" fill="white"/>
<path d="M1.44487 6.90967L1.57965 7.33578H2.0177L1.6629 7.60083L1.79768 8.02695L1.44487 7.76394L1.09007 8.02695L1.22882 7.60083L0.874023 7.33578H1.3081L1.44487 6.90967Z" fill="white"/>
<path d="M1.44487 8.79541L1.57965 9.2256H2.0177L1.6629 9.48861L1.79768 9.91473L1.44487 9.65172L1.09007 9.91473L1.22882 9.48861L0.874023 9.2256H1.3081L1.44487 8.79541Z" fill="white"/>
<path d="M2.72346 2.24048L2.8523 2.66863H3.29431L2.94149 2.93368L3.0743 3.3598L2.72346 3.09679L2.37065 3.3598L2.50345 2.93368L2.15063 2.66863H2.58868L2.72346 2.24048Z" fill="white"/>
<path d="M2.72346 4.12866L2.8523 4.55478H3.29431L2.94149 4.81983L3.0743 5.24594L2.72346 4.98701L2.37065 5.24594L2.50345 4.81983L2.15063 4.55478H2.58868L2.72346 4.12866Z" fill="white"/>
<path d="M2.72346 6.01685L2.8523 6.445H3.29431L2.94149 6.70801L3.0743 7.13413L2.72346 6.87112L2.37065 7.13413L2.50345 6.70801L2.15063 6.445H2.58868L2.72346 6.01685Z" fill="white"/>
<path d="M2.72346 7.90674L2.8523 8.33285H3.29431L2.94149 8.59586L3.0743 9.01994L2.72346 8.75693L2.37065 9.01994L2.50345 8.59586L2.15063 8.33285H2.58868L2.72346 7.90674Z" fill="white"/>
<path d="M4.01372 1.24585L4.15048 1.67604H4.58853L4.23373 1.93905L4.3705 2.36721L4.01372 2.1042L3.66288 2.36721L3.79767 1.93905L3.44287 1.67604H3.87893L4.01372 1.24585Z" fill="white"/>
<path d="M4.01372 3.13379L4.15048 3.56194H4.58853L4.23373 3.82495L4.3705 4.25311L4.01372 3.98806L3.66288 4.25311L3.79767 3.82495L3.44287 3.56194H3.87893L4.01372 3.13379Z" fill="white"/>
<path d="M4.01372 5.02368L4.15048 5.44776H4.58853L4.23373 5.71281L4.3705 6.143L4.01372 5.87591L3.66288 6.143L3.79767 5.71281L3.44287 5.44776H3.87893L4.01372 5.02368Z" fill="white"/>
<path d="M4.01372 6.90967L4.15048 7.33578H4.58853L4.23373 7.60083L4.3705 8.02695L4.01372 7.76394L3.66288 8.02695L3.79767 7.60083L3.44287 7.33578H3.87893L4.01372 6.90967Z" fill="white"/>
<path d="M4.01372 8.79541L4.15048 9.2256H4.58853L4.23373 9.48861L4.3705 9.91473L4.01372 9.65172L3.66288 9.91473L3.79767 9.48861L3.44287 9.2256H3.87893L4.01372 8.79541Z" fill="white"/>
<path d="M5.29426 2.24048L5.42707 2.66863H5.86709L5.51031 2.93368L5.64708 3.3598L5.29426 3.09679L4.94145 3.3598L5.07822 2.93368L4.72144 2.66863H5.15948L5.29426 2.24048Z" fill="white"/>
<path d="M5.29426 4.12866L5.42707 4.55478H5.86709L5.51031 4.81983L5.64708 5.24594L5.29426 4.98701L4.94145 5.24594L5.07822 4.81983L4.72144 4.55478H5.15948L5.29426 4.12866Z" fill="white"/>
<path d="M5.29426 6.01685L5.42707 6.445H5.86709L5.51031 6.70801L5.64708 7.13413L5.29426 6.87112L4.94145 7.13413L5.07822 6.70801L4.72144 6.445H5.15948L5.29426 6.01685Z" fill="white"/>
<path d="M5.29426 7.90674L5.42707 8.33285H5.86709L5.51031 8.59586L5.64708 9.01994L5.29426 8.75693L4.94145 9.01994L5.07822 8.59586L4.72144 8.33285H5.15948L5.29426 7.90674Z" fill="white"/>
<path d="M6.58842 1.24585L6.72519 1.67604H7.15927L6.80447 1.93905L6.9452 2.36721L6.58842 2.1042L6.23363 2.36721L6.36841 1.93905L6.01758 1.67604H6.45364L6.58842 1.24585Z" fill="white"/>
<path d="M6.58842 3.13379L6.72519 3.56194H7.15927L6.80447 3.82495L6.9452 4.25311L6.58842 3.98806L6.23363 4.25311L6.36841 3.82495L6.01758 3.56194H6.45364L6.58842 3.13379Z" fill="white"/>
<path d="M6.58842 5.02368L6.72519 5.44776H7.15927L6.80447 5.71281L6.9452 6.143L6.58842 5.87591L6.23363 6.143L6.36841 5.71281L6.01758 5.44776H6.45364L6.58842 5.02368Z" fill="white"/>
<path d="M6.58842 6.90967L6.72519 7.33578H7.15927L6.80447 7.60083L6.9452 8.02695L6.58842 7.76394L6.23363 8.02695L6.36841 7.60083L6.01758 7.33578H6.45364L6.58842 6.90967Z" fill="white"/>
<path d="M6.58842 8.79541L6.72519 9.2256H7.15927L6.80447 9.48861L6.9452 9.91473L6.58842 9.65172L6.23363 9.91473L6.36841 9.48861L6.01758 9.2256H6.45364L6.58842 8.79541Z" fill="white"/>
<path d="M7.86702 2.24048L8.0018 2.66863H8.43786L8.08505 2.93368L8.21785 3.3598L7.86702 3.09679L7.5142 3.3598L7.647 2.93368L7.29419 2.66863H7.73025L7.86702 2.24048Z" fill="white"/>
<path d="M7.86702 4.12866L8.0018 4.55478H8.43786L8.08505 4.81983L8.21785 5.24594L7.86702 4.98701L7.5142 5.24594L7.647 4.81983L7.29419 4.55478H7.73025L7.86702 4.12866Z" fill="white"/>
<path d="M7.86702 6.01685L8.0018 6.445H8.43786L8.08505 6.70801L8.21785 7.13413L7.86702 6.87112L7.5142 7.13413L7.647 6.70801L7.29419 6.445H7.73025L7.86702 6.01685Z" fill="white"/>
<path d="M7.86702 7.90674L8.0018 8.33285H8.43786L8.08505 8.59586L8.21785 9.01994L7.86702 8.75693L7.5142 9.01994L7.647 8.59586L7.29419 8.33285H7.73025L7.86702 7.90674Z" fill="white"/>
<path d="M9.15923 1.24585L9.29401 1.67604H9.73007L9.37924 1.93905L9.51601 2.36721L9.15923 2.1042L8.80839 2.36721L8.94119 1.93905L8.58838 1.67604H9.02444L9.15923 1.24585Z" fill="white"/>
<path d="M9.15923 3.13379L9.29401 3.56194H9.73007L9.37924 3.82495L9.51601 4.25311L9.15923 3.98806L8.80839 4.25311L8.94119 3.82495L8.58838 3.56194H9.02444L9.15923 3.13379Z" fill="white"/>
<path d="M9.15923 5.02368L9.29401 5.44776H9.73007L9.37924 5.71281L9.51601 6.143L9.15923 5.87591L8.80839 6.143L8.94119 5.71281L8.58838 5.44776H9.02444L9.15923 5.02368Z" fill="white"/>
<path d="M9.15923 6.90967L9.29401 7.33578H9.73007L9.37924 7.60083L9.51601 8.02695L9.15923 7.76394L8.80839 8.02695L8.94119 7.60083L8.58838 7.33578H9.02444L9.15923 6.90967Z" fill="white"/>
<path d="M9.15923 8.79541L9.29401 9.2256H9.73007L9.37924 9.48861L9.51601 9.91473L9.15923 9.65172L8.80839 9.91473L8.94119 9.48861L8.58838 9.2256H9.02444L9.15923 8.79541Z" fill="white"/>
<path d="M10.4378 2.24048L10.5726 2.66863H11.0126L10.6578 2.93368L10.7926 3.3598L10.4378 3.09679L10.085 3.3598L10.2217 2.93368L9.86694 2.66863H10.305L10.4378 2.24048Z" fill="white"/>
<path d="M10.4378 4.12866L10.5726 4.55478H11.0126L10.6578 4.81983L10.7926 5.24594L10.4378 4.98701L10.085 5.24594L10.2217 4.81983L9.86694 4.55478H10.305L10.4378 4.12866Z" fill="white"/>
<path d="M10.4378 6.01685L10.5726 6.445H11.0126L10.6578 6.70801L10.7926 7.13413L10.4378 6.87112L10.085 7.13413L10.2217 6.70801L9.86694 6.445H10.305L10.4378 6.01685Z" fill="white"/>
<path d="M10.4378 7.90674L10.5726 8.33285H11.0126L10.6578 8.59586L10.7926 9.01994L10.4378 8.75693L10.085 9.01994L10.2217 8.59586L9.86694 8.33285H10.305L10.4378 7.90674Z" fill="white"/>
<path d="M11.732 1.24585L11.8687 1.67604H12.3048L11.952 1.93905L12.0848 2.36721L11.732 2.1042L11.3831 2.36721L11.5139 1.93905L11.1611 1.67604H11.5972L11.732 1.24585Z" fill="white"/>
<path d="M11.732 3.13379L11.8687 3.56194H12.3048L11.952 3.82495L12.0848 4.25311L11.732 3.98806L11.3831 4.25311L11.5139 3.82495L11.1611 3.56194H11.5972L11.732 3.13379Z" fill="white"/>
<path d="M11.732 5.02368L11.8687 5.44776H12.3048L11.952 5.71281L12.0848 6.143L11.732 5.87591L11.3831 6.143L11.5139 5.71281L11.1611 5.44776H11.5972L11.732 5.02368Z" fill="white"/>
<path d="M11.732 6.90967L11.8687 7.33578H12.3048L11.952 7.60083L12.0848 8.02695L11.732 7.76394L11.3831 8.02695L11.5139 7.60083L11.1611 7.33578H11.5972L11.732 6.90967Z" fill="white"/>
<path d="M11.732 8.79541L11.8687 9.2256H12.3048L11.952 9.48861L12.0848 9.91473L11.732 9.65172L11.3831 9.91473L11.5139 9.48861L11.1611 9.2256H11.5972L11.732 8.79541Z" fill="white"/>
<path d="M13.0125 2.24048L13.1433 2.66863H13.5814L13.2325 2.93368L13.3613 3.3598L13.0125 3.09679L12.6557 3.3598L12.7925 2.93368L12.4417 2.66863H12.8757L13.0125 2.24048Z" fill="white"/>
<path d="M13.0125 4.12866L13.1433 4.55478H13.5814L13.2325 4.81983L13.3613 5.24594L13.0125 4.98701L12.6557 5.24594L12.7925 4.81983L12.4417 4.55478H12.8757L13.0125 4.12866Z" fill="white"/>
<path d="M13.0125 6.01685L13.1433 6.445H13.5814L13.2325 6.70801L13.3613 7.13413L13.0125 6.87112L12.6557 7.13413L12.7925 6.70801L12.4417 6.445H12.8757L13.0125 6.01685Z" fill="white"/>
<path d="M13.0125 7.90674L13.1433 8.33285H13.5814L13.2325 8.59586L13.3613 9.01994L13.0125 8.75693L12.6557 9.01994L12.7925 8.59586L12.4417 8.33285H12.8757L13.0125 7.90674Z" fill="white"/>
<path d="M14.3028 1.24585L14.4415 1.67604H14.8756L14.5228 1.93905L14.6596 2.36721L14.3028 2.1042L13.9519 2.36721L14.0847 1.93905L13.7319 1.67604H14.168L14.3028 1.24585Z" fill="white"/>
<path d="M14.3028 3.13379L14.4415 3.56194H14.8756L14.5228 3.82495L14.6596 4.25311L14.3028 3.98806L13.9519 4.25311L14.0847 3.82495L13.7319 3.56194H14.168L14.3028 3.13379Z" fill="white"/>
<path d="M14.3028 5.02368L14.4415 5.44776H14.8756L14.5228 5.71281L14.6596 6.143L14.3028 5.87591L13.9519 6.143L14.0847 5.71281L13.7319 5.44776H14.168L14.3028 5.02368Z" fill="white"/>
<path d="M14.3028 6.90967L14.4415 7.33578H14.8756L14.5228 7.60083L14.6596 8.02695L14.3028 7.76394L13.9519 8.02695L14.0847 7.60083L13.7319 7.33578H14.168L14.3028 6.90967Z" fill="white"/>
<path d="M14.3028 8.79541L14.4415 9.2256H14.8756L14.5228 9.48861L14.6596 9.91473L14.3028 9.65172L13.9519 9.91473L14.0847 9.48861L13.7319 9.2256H14.168L14.3028 8.79541Z" fill="white"/>
</svg>
