<svg width="100" height="46" viewBox="0 0 100 46" fill="none" xmlns="http://www.w3.org/2000/svg">
<g clip-path="url(#clip0)">
<path d="M20.673 0V24.6878H13.8597V6.17248H13.7121L8.22299 9.40287V3.71232L14.3988 0H20.673Z" fill="#27292B"/>
<path d="M26.9472 24.6878L36.7981 5.49693V5.35172H25.2316V0H43.8574V5.35172L33.9573 24.6878H26.9472Z" fill="#27292B"/>
<path d="M85.1498 31.258C84.3733 31.258 83.6353 31.1991 82.9315 31.0834C82.2299 30.9676 81.6117 30.8077 81.0811 30.6077L82.5507 25.8832C83.3829 26.1715 84.0952 26.2998 84.6835 26.262C85.2718 26.2262 85.7039 25.9715 85.982 25.4959L86.1296 25.1592L79.5131 5.82313H86.5703L89.61 18.65H89.8068L92.8937 5.82313H100L93.1375 25.8832C92.7953 26.8954 92.299 27.8067 91.6487 28.619C90.9983 29.4313 90.147 30.0732 89.0945 30.5488C88.042 31.0244 86.7264 31.258 85.1498 31.258Z" fill="#FF214F"/>
<path d="M77.0445 19.4687C76.7707 19.5171 76.5311 19.5402 76.3279 19.5402C76.0348 19.5402 75.7931 19.4981 75.6049 19.4139C75.4166 19.3298 75.2776 19.2014 75.1877 19.0288C75.0979 18.8563 75.053 18.6416 75.053 18.3848V10.6445H78.2874V5.82313H75.053V1.38686L68.2889 3.80913V5.82313H65.8866V10.6445H68.2889V19.0099C68.2718 20.3041 68.5306 21.3816 69.0611 22.2403C69.5916 23.101 70.3853 23.7281 71.4378 24.1259C72.4924 24.5236 73.7951 24.6815 75.346 24.6015C76.114 24.5615 76.7771 24.4773 77.3376 24.349C77.8959 24.2206 78.328 24.1112 78.6297 24.0228L77.6499 19.3466C77.5194 19.3803 77.3183 19.4203 77.0445 19.4687Z" fill="#FF214F"/>
<path d="M64.0747 36.454C64.0747 38.4301 63.6896 40.1327 62.9174 41.5595C62.1452 42.9864 61.0349 44.0828 59.5846 44.8509C58.1342 45.6191 56.3972 46.0021 54.3714 46.0021C52.4269 46.0021 50.7284 45.617 49.2737 44.8446C47.8191 44.0723 46.6875 42.9843 45.8789 41.5785C45.0703 40.1727 44.666 38.5122 44.666 36.5992C44.666 35.1997 44.8863 33.9349 45.327 32.8027C45.7676 31.6684 46.4072 30.7003 47.2437 29.8964C48.0822 29.0925 49.0962 28.4738 50.2877 28.0403C51.4814 27.6067 52.8248 27.39 54.3201 27.39H55.8881V43.9292H52.1638V33.514C51.6247 33.5225 51.1498 33.6571 50.7369 33.9181C50.3241 34.1791 50.0011 34.5284 49.77 34.9661C49.5369 35.4039 49.4213 35.9005 49.4213 36.454C49.4213 36.9928 49.5369 37.4873 49.77 37.9377C50.0032 38.388 50.3241 38.7479 50.7327 39.0173C51.1412 39.2867 51.6183 39.4298 52.1659 39.4445H56.1854C56.7908 39.4445 57.3299 39.3203 57.8026 39.0699C58.2775 38.8216 58.6476 38.4638 58.9171 37.9966C59.1867 37.5315 59.3214 36.9675 59.3214 36.3088C59.3214 35.85 59.2551 35.4312 59.1246 35.0482C58.9942 34.6673 58.8038 34.339 58.5556 34.0654C58.3075 33.7918 58.0059 33.5919 57.655 33.4635V27.3879C58.9621 27.5962 60.0958 28.0908 61.0563 28.8715C62.0168 29.6502 62.7591 30.6814 63.2875 31.963C63.8116 33.2447 64.0747 34.741 64.0747 36.454Z" fill="#FF214F"/>
<path d="M45.5773 9.07247C44.9676 10.0405 44.6638 11.1812 44.6638 12.4902C44.6638 13.8476 45.0018 15.0366 45.68 16.0531C46.3581 17.0695 47.2929 17.7787 48.4866 18.1807V18.3743H44.9077L47.2437 24.6899H63.7282V18.0334H53.1414C52.521 18.025 51.9884 17.9134 51.5413 17.6967C51.0963 17.4799 50.7519 17.1684 50.5124 16.7623C50.2728 16.3561 50.1508 15.8805 50.1508 15.3333C50.1508 14.4978 50.4161 13.8455 50.9466 13.374C51.4771 12.9047 52.2087 12.6733 53.1393 12.6817H63.726V6.02727H51.7167C50.3519 6.01885 49.139 6.28191 48.078 6.81645C47.0212 7.35099 46.1869 8.1023 45.5773 9.07247Z" fill="#FF214F"/>
<path d="M18.4782 45.6401L13.772 27.1248H20.5361L22.6924 38.407H22.84L25.2423 27.1227H31.8095L34.3102 38.3102H34.4578L36.5157 27.1227H43.2798L38.5736 45.638H31.2705L28.6243 35.7048H28.4275L25.7813 45.638H18.4782V45.6401Z" fill="#FF214F"/>
<path d="M11.1558 40.7682C10.882 40.8166 10.6424 40.8398 10.4392 40.8398C10.1461 40.8398 9.90438 40.7977 9.71613 40.7135C9.52788 40.6293 9.38884 40.501 9.29899 40.3284C9.20915 40.1558 9.16422 39.9412 9.16422 39.6844V31.9462H12.3987V27.1248H9.16636V22.6864L2.40229 25.1087V27.1227H0V31.9441H2.40229V40.3094C2.38518 41.6037 2.64402 42.6812 3.17454 43.5398C3.70505 44.4006 4.49868 45.0277 5.55116 45.4255C6.60577 45.8232 7.90853 45.9811 9.45943 45.9011C10.2274 45.8611 10.8905 45.7769 11.451 45.6485C12.0093 45.5202 12.4414 45.4107 12.7431 45.3224L11.7633 40.6462C11.6328 40.6798 11.4296 40.7198 11.1558 40.7682Z" fill="#FF214F"/>
</g>
<defs>
<clipPath id="clip0">
<rect width="100" height="46" fill="white"/>
</clipPath>
</defs>
</svg>
